# xmcd
#
# Track frame offsets:
#	150
#	17991
#	34099
#	53633
#	73919
#	83699
#	102053
#	117009
#	131904
#	147139
#	162700
#	178435
#	188301
#	208275
#	223668
#	238425
#	251632
#	268013
#	286007
#	301031
#
# Disc length: 4241 seconds
#
# Revision: 1
# Processed by: cddbd v1.5PL3 Copyright (c) Steve Scherf et al.
# Submitted via: audiograbber 1.82.02
#
DISCID=2d108f14
DTITLE=Various Artist - Hott Country 096
DYEAR=2004
DGENRE=Country
TTITLE0=Big and Rich - Wild West Show
TTITLE1=Kenny Chesney And Uncle Kracker - When The Sun Goes Down
TTITLE2=Charlie Major - My Brother And Me
TTITLE3=Rascal Flatts - Mayberry
TTITLE4=Corb Lund Band - ( Gonna ) Shine My Boots
TTITLE5=George Strait - Desperately
TTITLE6=Shania Twain - It Only Hurts When I'm Breathing
TTITLE7=The Wilkinsons - LA
TTITLE8=SheDaisy - Passenger Seat
TTITLE9=Diamond Rio - We All Fall Down
TTITLE10=Emerson Drive - Last One Standing
TTITLE11=George Strait - Honk If You Honky Tonk
TTITLE12=John Michael Montgomery - Letters From Home
TTITLE13=Rachel Procter - Didn't I
TTITLE14=Tracey James - One Mississippi
TTITLE15=Brooks And Dunn - That's What She Gets For Loving Me
TTITLE16=Brad Johner - Different
TTITLE17=Jimmy Rankin - California
TTITLE18=Montgomery Gentry - If You Ever Stop Loving Me
TTITLE19=Reba McEntire - Somebody
EXTD=
EXTT0=
EXTT1=
EXTT2=
EXTT3=
EXTT4=
EXTT5=
EXTT6=
EXTT7=
EXTT8=
EXTT9=
EXTT10=
EXTT11=
EXTT12=
EXTT13=
EXTT14=
EXTT15=
EXTT16=
EXTT17=
EXTT18=
EXTT19=
PLAYORDER=
